<?xml version="1.0" standalone="no"?>
<!DOCTYPE svg PUBLIC "-//W3C//DTD SVG 20010904//EN"
 "http://www.w3.org/TR/2001/REC-SVG-20010904/DTD/svg10.dtd">
<svg version="1.0" xmlns="http://www.w3.org/2000/svg"
 width="77.000000pt" height="83.000000pt" viewBox="0 0 77.000000 83.000000"
 preserveAspectRatio="xMidYMid meet">

<g transform="translate(0.000000,83.000000) scale(0.100000,-0.100000)"
fill="#000000" stroke="none">
<path d="M293 678 l-73 -42 0 -94 0 -94 33 20 c111 67 130 75 146 65 9 -5 42
-24 74 -42 l57 -32 0 88 0 88 -74 43 c-40 23 -77 42 -82 42 -5 0 -42 -19 -81
-42z"/>
<path d="M270 391 l0 -61 39 0 c43 0 67 20 56 47 -4 10 -8 29 -9 43 -1 22 -6
25 -43 28 l-43 3 0 -60z m70 24 c0 -9 -9 -15 -25 -15 -16 0 -25 6 -25 15 0 9
9 15 25 15 16 0 25 -6 25 -15z m1 -50 c0 -5 -12 -11 -26 -13 -18 -2 -25 1 -25
13 0 12 7 15 25 13 14 -2 26 -7 26 -13z"/>
<path d="M390 390 c0 -57 15 -84 22 -38 4 31 26 34 39 4 7 -14 18 -26 26 -26
18 0 17 7 -8 42 l-21 29 23 25 c32 34 3 32 -33 -3 l-28 -27 0 27 c0 15 -4 27
-10 27 -6 0 -10 -27 -10 -60z"/>
<path d="M540 347 l0 -93 -42 -24 c-24 -12 -58 -32 -76 -43 l-34 -20 76 -44
75 -44 80 46 81 47 0 91 0 92 -75 43 c-41 23 -77 42 -80 42 -3 0 -5 -42 -5
-93z"/>
<path d="M130 392 l-65 -37 -3 -95 -2 -95 73 -43 c41 -23 78 -42 82 -42 18 0
154 83 149 91 -2 4 -38 26 -79 49 l-75 41 0 85 c0 46 -3 84 -8 84 -4 0 -36
-17 -72 -38z"/>
</g>
</svg>
